<svg width="32" height="33" viewBox="0 0 32 33" fill="none" xmlns="http://www.w3.org/2000/svg">
<g clip-path="url(#clip0_8456_16748)">
<path d="M5.25 5.0752H28.1897V27.9567H5.25V5.0752Z" fill="url(#paint0_radial_8456_16748)"/>
<path d="M5.24582 5.07507H28.1855V27.9565H5.24582V5.07507ZM4.20312 29.0258H29.2282V4.00586H4.20312V29.0258ZM20.5945 12.9232C20.5945 12.8377 20.6258 12.7949 20.7197 12.7949H22.3567C22.4401 12.7949 22.4818 12.827 22.4818 12.9232V21.3594C22.4818 21.4449 22.461 21.4877 22.3567 21.4877H20.7405C20.6363 21.4877 20.6049 21.4343 20.6049 21.3488V12.9232H20.5945ZM20.4798 10.4961C20.4798 9.81175 20.949 9.40546 21.5434 9.40546C22.1795 9.40546 22.607 9.84383 22.607 10.4961C22.607 11.2017 22.1586 11.5866 21.5226 11.5866C20.9177 11.5867 20.4798 11.2017 20.4798 10.4961ZM15.7876 16.441C15.4957 15.2541 14.8075 12.6666 14.5468 11.4156H14.526C14.307 12.6666 13.7544 14.7836 13.3164 16.441H15.7876V16.441ZM12.8889 18.1731L12.0652 21.3808C12.0443 21.4663 12.013 21.4877 11.9088 21.4877H10.376C10.2717 21.4877 10.2508 21.4556 10.2717 21.3273L13.233 10.6992C13.2851 10.5067 13.3164 10.3356 13.3373 9.81176C13.3373 9.73692 13.3685 9.70485 13.4207 9.70485H15.6104C15.6833 9.70485 15.7146 9.72623 15.7355 9.81176L19.0513 21.3487C19.0721 21.4342 19.0513 21.4877 18.9679 21.4877H17.237C17.1536 21.4877 17.1014 21.4663 17.0806 21.3915L16.2256 18.1731H12.8889V18.1731Z" fill="#FF7F18"/>
</g>
<defs>
<radialGradient id="paint0_radial_8456_16748" cx="0" cy="0" r="1" gradientUnits="userSpaceOnUse" gradientTransform="translate(12.8052 10.203) scale(17.4341 17.3087)">
<stop stop-color="#423325" stop-opacity="0.98"/>
<stop offset="1" stop-color="#1C0A00"/>
</radialGradient>
<clipPath id="clip0_8456_16748">
<rect width="25.025" height="25.025" fill="white" transform="translate(4.20312 4.00293)"/>
</clipPath>
</defs>
</svg>
