<svg width="19" height="13" viewBox="0 0 19 13" fill="none" xmlns="http://www.w3.org/2000/svg">
<path d="M5.91889 0.96582C6.4292 0.96582 6.90118 1.00575 7.33243 1.12395C7.76448 1.20301 8.11826 1.36113 8.43212 1.55839C8.74677 1.75645 8.98236 2.03276 9.13889 2.38815C9.29622 2.74353 9.37528 3.17877 9.37528 3.65235C9.37528 4.20579 9.25708 4.67936 8.98236 5.03474C8.74677 5.39092 8.35386 5.70638 7.88267 5.94356C8.55031 6.14162 9.06063 6.497 9.37528 6.97138C9.68913 7.44495 9.88559 8.03752 9.88559 8.70915C9.88559 9.26259 9.7674 9.73617 9.57094 10.1315C9.37528 10.5268 9.06063 10.8822 8.70684 11.1194C8.32253 11.3736 7.89771 11.5605 7.45063 11.672C6.97944 11.791 6.50826 11.8701 6.03708 11.8701H0.773438V0.96582H5.91889ZM5.60424 5.39013C6.03628 5.39013 6.39007 5.27193 6.66479 5.07467C6.93951 4.87742 7.05771 4.52124 7.05771 4.08679C7.05771 3.84961 7.01778 3.61322 6.93951 3.45509C6.86125 3.29697 6.74306 3.17797 6.58653 3.05978C6.4292 2.98072 6.27188 2.90165 6.07542 2.86252C5.87896 2.82259 5.6833 2.82259 5.44691 2.82259H3.16927V5.39092H5.60504L5.60424 5.39013ZM5.72243 10.0524C5.95802 10.0524 6.19361 10.0125 6.39007 9.97335C6.58653 9.93342 6.78299 9.85516 6.93951 9.73617C7.09954 9.62055 7.23342 9.47252 7.33243 9.30172C7.4107 9.10447 7.48976 8.86728 7.48976 8.59096C7.48976 8.03752 7.33243 7.64221 7.01858 7.36589C6.70392 7.1287 6.27188 7.01051 5.76156 7.01051H3.16927V10.0532L5.72243 10.0524ZM13.3028 10.0125C13.6167 10.3287 14.0879 10.4869 14.7164 10.4869C15.1484 10.4869 15.5414 10.3687 15.8552 10.1714C16.1699 9.93422 16.3663 9.69704 16.4446 9.46065H18.3692C18.0546 10.4078 17.5834 11.0794 16.9557 11.5147C16.3264 11.9092 15.5805 12.1464 14.6773 12.1464C14.0994 12.1482 13.5263 12.0409 12.9882 11.8301C12.504 11.6485 12.0722 11.3501 11.7312 10.9612C11.3665 10.5975 11.0968 10.1496 10.9461 9.6571C10.7497 9.1436 10.6706 8.59096 10.6706 7.95846C10.6706 7.36589 10.7497 6.81325 10.9461 6.29895C11.1354 5.8041 11.4151 5.34884 11.7711 4.95648C12.1298 4.5882 12.5564 4.29286 13.0273 4.08679C13.5518 3.87601 14.112 3.76862 14.6773 3.77054C15.3449 3.77054 15.9343 3.88954 16.4446 4.16586C16.9557 4.44217 17.3478 4.75842 17.6617 5.2328C17.9763 5.66724 18.2127 6.18075 18.3692 6.73419C18.4475 7.28683 18.4866 7.84026 18.4475 8.47197H12.7526C12.7526 9.10447 12.9882 9.69704 13.3028 10.0133V10.0125ZM15.7769 5.8645C15.5022 5.58818 15.0702 5.43006 14.5591 5.43006C14.2061 5.43006 13.9306 5.50992 13.695 5.62811C13.4594 5.74631 13.3028 5.90443 13.1455 6.06256C13.0007 6.21522 12.9048 6.40766 12.87 6.6152C12.8309 6.81325 12.7917 6.97138 12.7917 7.1287H16.3264C16.2481 6.53613 16.0517 6.14162 15.7769 5.8645ZM12.3206 1.71651H16.7193V2.78346H12.3214V1.71651H12.3206Z" fill="#542905"/>
</svg>
