<svg width="32" height="33" viewBox="0 0 32 33" fill="none" xmlns="http://www.w3.org/2000/svg">
<path d="M23.0816 27.1169L15.7746 29.0287L8.46743 27.1169L6.78125 9.36621H24.768L23.0816 27.1169Z" fill="#2062AF"/>
<path d="M15.7734 10.2588V27.2356L15.7897 27.24L21.6219 25.6671L22.9681 10.2588H15.7734V10.2588Z" fill="#3C9CD7"/>
<path d="M11.5857 6.42371V5.26779H13.1897V4.00293H10.3828V7.57792H13.1897V6.42371H11.5857ZM16.0749 5.26779H17.1963V4.00293H14.3892V5.26779C14.7647 5.66268 14.9606 5.85168 15.5037 6.4228C15.1862 6.4228 14.3892 6.424 14.3892 6.42394V7.57792H17.1963V6.42371L16.0749 5.26779ZM20.0535 5.26779H21.1748V4.00293H18.3676V5.26779C18.7431 5.66268 18.9391 5.85168 19.4822 6.4228C19.1648 6.4228 18.3676 6.424 18.3676 6.42394V7.57792H21.1748V6.42371L20.0535 5.26779V5.26779Z" fill="black"/>
<path d="M15.5936 15.1295L10.3828 17.1732L10.5556 19.1967L15.5936 17.1681L20.9527 15.0103L21.1748 12.9404L15.5936 15.1295Z" fill="white"/>
<path d="M10.3828 16.9731L10.5618 19.1963L15.7788 16.9674V14.7275L10.3828 16.9731V16.9731Z" fill="url(#paint0_linear_8456_16757)"/>
<path d="M21.1695 12.9404L15.7734 15.2543V17.4092L20.9546 15.1283L21.1695 12.9404Z" fill="url(#paint1_linear_8456_16757)"/>
<path d="M10.3828 17.4092L10.5627 19.5299L18.6053 19.5542L18.4254 22.3817L15.7789 23.0886L13.2348 22.4792L13.0807 20.7241H10.7168L11.0252 24.1123L15.8046 25.4529L20.5581 24.1366L21.1748 17.4092H10.3828V17.4092Z" fill="url(#paint2_linear_8456_16757)"/>
<path opacity="0.05" d="M15.7788 17.4092H10.3828L10.5618 19.5299L15.7788 19.5457V17.4092ZM15.7788 23.0818L15.7533 23.0886L13.2215 22.4792L13.068 20.7242H10.7153L11.0222 24.1123L15.7788 25.4529V23.0818Z" fill="black"/>
<path d="M10.3828 12.9404H21.1748L20.9619 14.7279H10.6431L10.3828 12.9404V12.9404Z" fill="url(#paint3_linear_8456_16757)"/>
<path opacity="0.05" d="M15.7788 12.9404H10.3828L10.6409 14.7279H15.7788V12.9404V12.9404Z" fill="black"/>
<defs>
<linearGradient id="paint0_linear_8456_16757" x1="13.0808" y1="19.1963" x2="13.0808" y2="14.7276" gradientUnits="userSpaceOnUse">
<stop offset="0.387" stop-color="#D1D3D4" stop-opacity="0"/>
<stop offset="1" stop-color="#D1D3D4"/>
</linearGradient>
<linearGradient id="paint1_linear_8456_16757" x1="18.4714" y1="17.4092" x2="18.4714" y2="12.9405" gradientUnits="userSpaceOnUse">
<stop offset="0.387" stop-color="#D1D3D4" stop-opacity="0"/>
<stop offset="1" stop-color="#D1D3D4"/>
</linearGradient>
<linearGradient id="paint2_linear_8456_16757" x1="10.3828" y1="21.4311" x2="21.1748" y2="21.4311" gradientUnits="userSpaceOnUse">
<stop stop-color="#E8E7E5"/>
<stop offset="1" stop-color="white"/>
</linearGradient>
<linearGradient id="paint3_linear_8456_16757" x1="10.3828" y1="13.8342" x2="21.1748" y2="13.8342" gradientUnits="userSpaceOnUse">
<stop stop-color="#E8E7E5"/>
<stop offset="1" stop-color="white"/>
</linearGradient>
</defs>
</svg>
