<svg width="32" height="32" viewBox="0 0 32 32" fill="none" xmlns="http://www.w3.org/2000/svg">
<g clip-path="url(#clip0_8456_16742)">
<path d="M11.7614 28.2714C14.0446 28.2714 15.8977 26.4029 15.8977 24.1005V19.9297H11.7614C9.47809 19.9297 7.625 21.7982 7.625 24.1005C7.625 26.4029 9.47809 28.2714 11.7614 28.2714Z" fill="#0ACF83"/>
<path d="M7.625 15.7597C7.625 13.4574 9.47809 11.5889 11.7614 11.5889H15.8977V19.9305H11.7614C9.47809 19.9305 7.625 18.062 7.625 15.7597Z" fill="#A259FF"/>
<path d="M7.63281 7.4179C7.63281 5.1156 9.4859 3.24707 11.7692 3.24707H15.9055V11.5887H11.7692C9.4859 11.5887 7.63281 9.7202 7.63281 7.4179Z" fill="#F24E1E"/>
<path d="M15.8984 3.24707H20.0348C22.3181 3.24707 24.1712 5.1156 24.1712 7.4179C24.1712 9.7202 22.3181 11.5887 20.0348 11.5887H15.8984V3.24707Z" fill="#FF7262"/>
<path d="M24.1712 15.7597C24.1712 18.062 22.3181 19.9305 20.0348 19.9305C17.7515 19.9305 15.8984 18.062 15.8984 15.7597C15.8984 13.4574 17.7515 11.5889 20.0348 11.5889C22.3181 11.5889 24.1712 13.4574 24.1712 15.7597Z" fill="#1ABCFE"/>
</g>
<defs>
<clipPath id="clip0_8456_16742">
<rect width="16.5488" height="25.025" fill="white" transform="translate(7.625 3.24707)"/>
</clipPath>
</defs>
</svg>
