<svg width="32" height="33" viewBox="0 0 32 33" fill="none" xmlns="http://www.w3.org/2000/svg">
<g clip-path="url(#clip0_8456_16754)">
<path d="M8.62125 27.0172L6.98438 8.92188H24.9711L23.3324 27.0144L15.9667 29.027L8.62125 27.0172Z" fill="#E44D26"/>
<path d="M15.9844 27.4885L21.9362 25.8621L23.3366 10.4014H15.9844V27.4885Z" fill="#F16529"/>
<path d="M15.9823 17.1121H13.0027L12.7969 14.8395H15.9823V12.6201H10.3359L10.3899 13.2155L10.9433 19.3313H15.9823V17.1121ZM15.9823 22.8758L15.9724 22.8785L13.4646 22.211L13.3043 20.4411H11.044L11.3595 23.9258L15.972 25.1878L15.9823 25.1849V22.8758Z" fill="#EBEBEB"/>
<path d="M8.65625 4.00391H9.80053V5.11817H10.8473V4.00391H11.9916V7.37821H10.8473V6.24831H9.80053V7.37821H8.65633L8.65625 4.00391ZM13.4965 5.12293H12.4891V4.00391H15.6488V5.12293H14.641V7.37821H13.4965V5.12293H13.4965ZM16.1502 4.00391H17.3434L18.0774 5.18957L18.8107 4.00391H20.0044V7.37821H18.8646V5.70569L18.0773 6.90545H18.0576L17.2698 5.70569V7.37821H16.1501V4.00391H16.1502ZM20.5738 4.00391H21.7184V6.2629H23.3277V7.37821H20.5738V4.00391Z" fill="black"/>
<path d="M15.9688 17.1121V19.3313H18.7416L18.4801 22.2097L15.9688 22.8777V25.1866L20.585 23.9258L20.6187 23.5507L21.1479 17.7081L21.2029 17.1121H20.5962H15.9688ZM15.9688 12.6201V14.8395H21.4078L21.4529 14.3406L21.5555 13.2155L21.6094 12.6201H15.9688Z" fill="white"/>
</g>
<defs>
<clipPath id="clip0_8456_16754">
<rect width="17.9867" height="25.025" fill="white" transform="translate(6.98438 4.00293)"/>
</clipPath>
</defs>
</svg>
