<svg width="16" height="15" viewBox="0 0 16 15" fill="none" xmlns="http://www.w3.org/2000/svg">
<path d="M3.61632 1.96521C3.61611 2.38882 3.44763 2.79499 3.14794 3.09438C2.84825 3.39377 2.44191 3.56184 2.0183 3.56163C1.59469 3.56142 1.18851 3.39294 0.889126 3.09325C0.589738 2.79356 0.421663 2.38722 0.421875 1.96361C0.422087 1.54 0.590568 1.13383 0.890255 0.834438C1.18994 0.535051 1.59629 0.366976 2.0199 0.367188C2.44351 0.3674 2.84968 0.535881 3.14907 0.835568C3.44846 1.13525 3.61653 1.5416 3.61632 1.96521ZM3.66424 4.74437H0.469792V14.743H3.66424V4.74437ZM8.71146 4.74437H5.53299V14.743H8.67951V9.49611C8.67951 6.57319 12.4889 6.30167 12.4889 9.49611V14.743H15.6434V8.41C15.6434 3.48257 10.0052 3.66625 8.67951 6.08604L8.71146 4.74437Z" fill="#542905"/>
</svg>
