<svg width="33" height="33" viewBox="0 0 33 33" fill="none" xmlns="http://www.w3.org/2000/svg">
<g clip-path="url(#clip0_8456_16751)">
<path d="M5.44531 5.0752H28.385V27.9567H5.44531V5.0752Z" fill="url(#paint0_radial_8456_16751)"/>
<path d="M5.44113 5.07507H28.3808V27.9565H5.44113V5.07507ZM4.39844 29.0258H29.4235V4.00586H4.39844V29.0258ZM21.2695 14.2704C20.4457 14.2704 20.1642 14.6981 20.1642 15.0509C20.1642 15.4359 20.3519 15.7032 21.4572 16.2913C23.0942 17.1039 23.6052 17.8844 23.6052 19.0285C23.6052 20.7392 22.3331 21.6588 20.6126 21.6588C19.7054 21.6588 18.9234 21.4663 18.475 21.199C18.402 21.167 18.3916 21.1135 18.3916 21.0279V19.4562C18.3916 19.3493 18.4437 19.3171 18.5168 19.3706C19.1737 19.8091 19.9244 20.0015 20.6126 20.0015C21.4363 20.0015 21.7804 19.6486 21.7804 19.1675C21.7804 18.7826 21.5406 18.4404 20.4874 17.8844C19.0068 17.1573 18.3916 16.4196 18.3916 15.19C18.3916 13.8106 19.4448 12.6666 21.2695 12.6666C22.1662 12.6666 22.7919 12.8056 23.1359 12.966C23.2193 13.0194 23.2402 13.105 23.2402 13.1798V14.6446C23.2402 14.7301 23.1881 14.7836 23.0838 14.7515C22.625 14.4522 21.9472 14.2704 21.2695 14.2704V14.2704ZM12.3022 15.5428C12.542 15.5642 12.7297 15.5642 13.1468 15.5642C14.3668 15.5642 15.5137 15.1258 15.5137 13.4258C15.5137 12.0679 14.69 11.3835 13.3032 11.3835C12.8861 11.3835 12.4899 11.4049 12.3022 11.4156V15.5428ZM10.4462 9.86521C10.4462 9.79037 10.5922 9.73687 10.6755 9.73687C11.3429 9.7048 12.3335 9.68342 13.3658 9.68342C16.2541 9.68342 17.3802 11.3086 17.3802 13.383C17.3802 16.0988 15.4616 17.2642 13.1051 17.2642C12.7089 17.2642 12.5733 17.2429 12.2917 17.2429V21.3487C12.2917 21.4342 12.2605 21.477 12.1666 21.477H10.5713C10.4879 21.477 10.4461 21.4449 10.4461 21.3487V9.86521H10.4462Z" fill="#31C5F0"/>
</g>
<defs>
<radialGradient id="paint0_radial_8456_16751" cx="0" cy="0" r="1" gradientUnits="userSpaceOnUse" gradientTransform="translate(13.0005 10.203) scale(17.4341 17.3087)">
<stop stop-color="#34364E" stop-opacity="0.98"/>
<stop offset="1" stop-color="#0C0824"/>
</radialGradient>
<clipPath id="clip0_8456_16751">
<rect width="25.025" height="25.025" fill="white" transform="translate(4.39844 4.00293)"/>
</clipPath>
</defs>
</svg>
