<svg width="32" height="33" viewBox="0 0 32 33" fill="none" xmlns="http://www.w3.org/2000/svg">
<g clip-path="url(#clip0_8456_16745)">
<path d="M24.7024 29.0279H8.27091C5.77962 29.0279 3.76562 26.9962 3.76562 24.4829V8.54798C3.76562 6.0347 5.77962 4.00293 8.27091 4.00293H24.7024C27.1937 4.00293 29.2077 6.0347 29.2077 8.54798V24.4829C29.2077 26.9962 27.1937 29.0279 24.7024 29.0279Z" fill="#FF26BE"/>
<path d="M24.2937 27.9577H8.66817C6.54834 27.9577 4.82031 26.2144 4.82031 24.0759V8.9541C4.82031 6.81555 6.54834 5.07227 8.66817 5.07227H24.2835C26.4145 5.07227 28.1314 6.81555 28.1314 8.9541V24.0656C28.1416 26.2144 26.4135 27.9577 24.2937 27.9577Z" fill="#2E001F"/>
<path d="M13.8182 15.7129L16.7868 21.4664C16.8397 21.5516 16.8081 21.6378 16.7227 21.6378H14.8776C14.7606 21.6378 14.7076 21.606 14.6547 21.4992C13.9759 20.0876 13.287 18.6759 12.5766 17.1575H12.5552C11.9192 18.5907 11.219 20.0989 10.5413 21.5105C10.4883 21.5957 10.4354 21.6286 10.3499 21.6286H8.60256C8.49672 21.6286 8.48553 21.5434 8.53947 21.4787L11.4439 15.8957L8.63513 10.249C8.57102 10.1638 8.63513 10.0991 8.69823 10.0991H10.5219C10.6278 10.0991 10.6705 10.1207 10.7122 10.2172C11.3798 11.6289 12.0586 13.0837 12.6947 14.5056H12.716C13.3307 13.0939 14.0095 11.6289 14.6669 10.2275C14.7199 10.1423 14.7514 10.0889 14.8583 10.0889H16.5649C16.6494 10.0889 16.682 10.1535 16.629 10.2388L13.8182 15.7129ZM17.3068 17.4562C17.3068 14.9645 18.9504 13.0179 21.5577 13.0179C21.7805 13.0179 21.8966 13.0179 22.1093 13.0395V10.2059C22.1093 10.1412 22.1622 10.0991 22.2151 10.0991H23.8902C23.9747 10.0991 23.996 10.131 23.996 10.1843V20.0024C23.996 20.2909 23.996 20.6543 24.049 21.0506C24.049 21.1153 24.0276 21.1358 23.9645 21.1687C23.074 21.5968 22.1408 21.7888 21.2503 21.7888C18.9494 21.798 17.3058 20.3658 17.3068 17.4562ZM22.1082 14.7191C21.9597 14.6545 21.748 14.6124 21.4936 14.6124C20.1573 14.6124 19.2251 15.6493 19.2251 17.372C19.2251 19.3402 20.1797 20.1317 21.3775 20.1317C21.632 20.1317 21.9078 20.0999 22.1093 20.0137V14.7191H22.1082Z" fill="#FFD9F2"/>
</g>
<defs>
<clipPath id="clip0_8456_16745">
<rect width="25.4421" height="25.025" fill="white" transform="translate(3.76562 4.00293)"/>
</clipPath>
</defs>
</svg>
